<svg xmlns="http://www.w3.org/2000/svg" version="1.1" xmlns:xlink="http://www.w3.org/1999/xlink" xmlns:svgjs="http://svgjs.dev/svgjs" width="1000" height="1000" viewBox="0 0 1000 1000"><rect width="1000" height="1000" fill="#ecab55"></rect><g transform="matrix(0.7,0,0,0.7,149.57578187037734,362.128367009923)"><svg viewBox="0 0 396 156" data-background-color="#ecab55" preserveAspectRatio="xMidYMid meet" height="393" width="1000" xmlns="http://www.w3.org/2000/svg" xmlns:xlink="http://www.w3.org/1999/xlink"><g id="tight-bounds" transform="matrix(1,0,0,1,0.23998631583847896,0.18238730080705068)"><svg viewBox="0 0 395.5199999999999 155.6352253983859" height="155.6352253983859" width="395.5199999999999"><g><svg viewBox="0 0 395.5199999999999 155.6352253983859" height="155.6352253983859" width="395.5199999999999"><g transform="matrix(1,0,0,1,0,112.38255240013163)"><svg viewBox="0 0 395.5199999999999 43.252672998254255" height="43.252672998254255" width="395.5199999999999"><g id="textblocktransform"><svg viewBox="0 0 395.5199999999999 43.252672998254255" height="43.252672998254255" width="395.5199999999999" id="textblock"><g><rect width="99.61625234141582" height="2.103781445712637" y="34.9922989357395" fill="#ffffff" data-fill-palette-color="tertiary"></rect><rect width="99.61625234141582" height="2.103781445712637" y="34.9922989357395" x="295.9037476585841" fill="#ffffff" data-fill-palette-color="tertiary"></rect></g><g><svg viewBox="0 0 395.5199999999999 23.328425047438323" height="23.328425047438323" width="395.5199999999999"><g transform="matrix(1,0,0,1,0,0)"><svg width="395.5199999999999" viewBox="3.1500000953674316 -36.25 632.3299560546875 37.29999923706055" height="23.328425047438323" data-palette-color="#ffffff"><path d="M12.7-32.5L12.6-29.8Q12.4-25.7 12.4-23.65L12.4-23.65 12.5-16.1Q12.55-14.3 12.55-12.4L12.55-12.4 12.45-6.95 12.4-5.95 12.45-4.55 12.55-2.8 19.7-2.55 25.65-2.5 25.75-2.5Q26.05-2.5 26.1-2.4 26.15-2.3 26.13-2.13 26.1-1.95 26.1-1.85L26.1-1.85Q26.05-1.65 26.13-1.1 26.2-0.55 26.2-0.1L26.2-0.1Q26.2 0.25 25.95 0.35 25.7 0.45 25.33 0.43 24.95 0.4 24.75 0.4L24.75 0.4 22.1 0.25Q18.6-0.05 17.15-0.05L17.15-0.05Q15.55-0.05 9.05 0.25L9.05 0.25 4.5 0.4Q3.4 0.4 3.4-0.6L3.4-0.6 3.4-4.5 3.6-21.25Q3.6-23.15 3.35-28.15L3.35-28.15 3.15-34.3Q3.15-35.15 3.8-35.15L3.8-35.15Q4.05-35.15 4.65-35 5.25-34.85 5.6-34.85L5.6-34.85Q7-34.65 8.95-34.65L8.95-34.65Q10.3-34.65 11.5-34.8L11.5-34.8Q12.25-34.9 12.55-34.7 12.85-34.5 12.85-34.05L12.85-34.05Q12.85-33.7 12.78-33.33 12.7-32.95 12.7-32.5L12.7-32.5ZM49.5-29.85Q49.5-28.85 49.35-28L49.35-28Q49.3-27.25 48.65-27.25L48.65-27.25Q48.45-27.25 48.1-27.35 47.75-27.45 47.55-27.5L47.55-27.5Q46.8-27.65 43.2-27.65L43.2-27.65 41.3-27.7Q40.65-27.75 39.4-27.75L39.4-27.75Q38.5-27.75 38.05-27.7L38.05-27.7Q36.55-27.6 35.4-27.6L35.4-27.6 32.75-27.65Q32.35-27.65 32.3-27.48 32.25-27.3 32.25-26.65L32.25-26.65Q32.25-25.75 32.2-25.1L32.2-25.1Q32.1-23.1 32.1-21.85L32.1-21.85 32.1-18.9Q32.1-17.85 32.15-17.3L32.15-17.3Q32.55-17.25 33.5-17.25L33.5-17.25Q34.35-17.2 37-17.2L37-17.2Q38.1-17.2 40.2-17.3L40.2-17.3Q41.8-17.4 42.3-17.4L42.3-17.4Q43-17.4 43.7-17.32 44.4-17.25 44.75-17.25L44.75-17.25Q45.4-17.25 45.4-16.65L45.4-16.65Q45.4-16.45 45.35-16.07 45.3-15.7 45.3-15.1L45.3-15.1 45.35-12.45Q45.35-12 45.25-11.83 45.15-11.65 44.9-11.65L44.9-11.65Q44.75-11.65 44.47-11.73 44.2-11.8 44-11.8L44-11.8Q43.55-11.8 42.32-11.85 41.1-11.9 39-11.9L39-11.9Q36.75-11.9 35.1-11.7 33.45-11.5 33.1-11.5L33.1-11.5Q32.55-11.5 32.45-11.55L32.45-11.55Q32.2-11.55 32.15-11.6L32.15-11.6 32.15-6.6Q32.5-6.6 32.7-6.65L32.7-6.65 34.1-6.7 40-6.75Q41.8-6.75 42.85-6.7L42.85-6.7 46.3-6.65 48.4-6.7Q49-6.7 49.2-6.43 49.4-6.15 49.4-5.65L49.4-5.65 49.35-4.65 49.3-1.15Q49.3-0.35 48.95-0.18 48.6 0 47.95-0.03 47.3-0.05 46.9-0.05L46.9-0.05Q44.75-0.05 43.2-0.1L43.2-0.1 38.1-0.15Q37.5-0.15 32.1 0L32.1 0 30.2 0.05 29.9 0.1Q29.6 0.1 29.55-0.08 29.5-0.25 29.5-0.75L29.5-0.75Q29.45-1.3 29.45-2.6L29.45-2.6Q29.45-3 29.4-3.48 29.35-3.95 29.35-4.75L29.35-4.75 29.35-11.6Q29.35-12.6 29.42-13.55 29.5-14.5 29.5-14.95L29.5-14.95Q29.7-17.25 29.7-19.35L29.7-19.35Q29.7-21.95 29.55-23.45L29.55-23.45Q29.45-25.15 29.45-26.55L29.45-26.55Q29.45-29.7 29.6-33.9L29.6-33.9Q29.6-34.55 29.85-34.77 30.1-35 30.55-35L30.55-35 31.3-34.95Q31.75-34.95 32.75-34.88 33.75-34.8 35.2-34.8L35.2-34.8Q36.85-34.8 39.1-35.05L39.1-35.05Q41.8-35.25 42.7-35.25L42.7-35.25Q44.75-35.25 46.45-35.1L46.45-35.1 48.25-35.05Q48.9-35.05 49.1-34.75 49.3-34.45 49.3-33.65L49.3-33.65Q49.3-33.2 49.4-32.1L49.4-32.1Q49.5-30.8 49.5-29.85L49.5-29.85ZM65.85-35.85Q70.6-35.85 73.67-33.98 76.75-32.1 78.45-30.4L78.45-30.4Q78.65-30.2 78.65-29.95L78.65-29.95Q78.65-29.8 78.52-29.58 78.4-29.35 78.35-29.25L78.35-29.25Q78.1-28.9 77.52-28.03 76.95-27.15 76.6-26.75L76.6-26.75Q76.45-26.55 76.27-26.33 76.1-26.1 75.97-26 75.85-25.9 75.6-25.9L75.6-25.9Q75.5-25.9 75.12-26.23 74.75-26.55 74.4-26.8L74.4-26.8Q72.4-28.55 70.5-29.8 68.6-31.05 66.85-31.05L66.85-31.05Q65.45-31.05 64.55-30.43 63.65-29.8 63.65-27.6L63.65-27.6Q63.65-25.45 65.25-24.25 66.85-23.05 69.5-21.95L69.5-21.95Q69.75-21.85 72.42-20.7 75.1-19.55 77.17-16.3 79.25-13.05 79.25-8.55L79.25-8.55Q79.25-3.75 75.65-1.35 72.05 1.05 65.7 1.05L65.7 1.05Q58.5 1.05 56.55-1.73 54.6-4.5 54.5-4.6L54.5-4.6Q54.3-4.85 54.3-5.1L54.3-5.1Q54.3-5.25 54.7-5.75L54.7-5.75Q55.35-6.65 56.6-7.9L56.6-7.9Q56.8-8.1 57-8.1L57-8.1Q57.25-8.1 57.55-7.73 57.85-7.35 58.05-7.15L58.05-7.15Q61-4.2 64.75-4.2L64.75-4.2Q66.65-4.2 68.05-4.93 69.45-5.65 69.45-7.65L69.45-7.65Q69.45-11.1 64-15L64-15Q63.1-15.6 62.3-16L62.3-16Q60.2-17.15 58.7-18.25 57.2-19.35 56.05-21.15 54.9-22.95 54.9-25.35L54.9-25.35Q54.9-28.35 56.77-30.75 58.65-33.15 61.27-34.5 63.9-35.85 65.85-35.85L65.85-35.85ZM113.99-35.05Q117.44-34.85 119.72-32.25 121.99-29.65 121.99-24.45L121.99-24.45Q121.99-21.05 120.54-19.05 119.09-17.05 117.19-16.28 115.29-15.5 113.84-15.5L113.84-15.5Q112.49-15.5 109.29-15.2L109.29-15.2Q107.44-15 106.29-14.95L106.29-14.95Q106.19-10.35 106.19-8.7L106.19-8.7Q106.19-2.2 106.34-1.65L106.34-1.65Q106.44-1.15 106.17-0.78 105.89-0.4 105.47-0.28 105.04-0.15 104.69-0.3L104.69-0.3Q104.54-0.35 103.84-0.35L103.84-0.35Q102.34-0.35 100.64-0.15L100.64-0.15Q99.84-0.05 99.59-0.48 99.34-0.9 99.34-1.8L99.34-1.8Q99.34-2.9 99.39-3.8L99.39-3.8 99.44-8 99.54-13.9Q99.84-24.5 99.84-30.45L99.84-30.45Q99.84-32.25 99.79-32.6L99.79-32.6Q99.69-33.7 99.69-33.9L99.69-33.9Q99.69-35.2 100.24-35.2L100.24-35.2Q100.49-35.2 101.27-35.15 102.04-35.1 103.44-35.1L103.44-35.1Q103.84-35.1 105.49-35.15 107.14-35.2 108.94-35.2L108.94-35.2Q111.59-35.2 113.99-35.05L113.99-35.05ZM112.44-19.1Q114.29-19.1 115.89-20.2 117.49-21.3 117.49-24.15L117.49-24.15Q117.49-27.2 116.24-28.78 114.99-30.35 112.59-30.8L112.59-30.8Q108.84-31.55 106.69-31.4L106.69-31.4Q106.69-30 106.64-29.3L106.64-29.3Q106.54-26.5 106.39-25.3L106.39-25.3Q106.19-23.55 106.29-21.35L106.29-21.35 106.39-19.4 108.74-19.25Q110.09-19.1 112.44-19.1L112.44-19.1ZM146.89-0.7Q147.04-0.35 147.04-0.2L147.04-0.2Q147.04 0 146.49 0L146.49 0 143.69 0Q143.49 0 143.36-0.08 143.24-0.15 143.14-0.45L143.14-0.45Q142.94-1 142.59-2.25L142.59-2.25Q142.14-3.5 141.99-4.5L141.99-4.5Q141.84-5.25 141.51-6.3 141.19-7.35 140.94-7.9L140.94-7.9Q140.49-8.85 140.14-10.05L140.14-10.05 139.69-11.5Q139.44-12.05 139.31-12.18 139.19-12.3 138.89-12.3L138.89-12.3Q137.84-12.3 137.34-12.25L137.34-12.25 135.19-12.15Q134.79-12.1 131.49-12.1L131.49-12.1 128.44-12.1 128.34-12.1Q128.04-12.1 127.89-11.55L127.89-11.55 127.79-11.05 127.59-10.1Q127.49-9.85 126.94-7.2L126.94-7.2Q126.79-6.35 126.44-5L126.44-5Q126.34-4 125.99-3.35L125.99-3.35Q125.89-3.2 125.74-2.65 125.59-2.1 125.49-1.75L125.49-1.75Q125.34-1.35 125.14-0.45L125.14-0.45Q125.09-0.4 125.04-0.23 124.99-0.05 124.89-0.03 124.79 0 124.59 0L124.59 0 123.59 0Q123.14 0 123.34-0.65L123.34-0.65Q123.34-0.8 123.39-0.9L123.39-0.9Q123.39-1 123.44-1.15 123.49-1.3 123.59-1.6L123.59-1.6 124.04-3.45Q124.14-3.75 124.39-4.5 124.64-5.25 124.74-5.9L124.74-5.9Q124.99-7.1 125.69-9.55L125.69-9.55 126.09-10.95Q127.04-14.05 127.29-15.3L127.29-15.3 127.99-17.95Q128.49-19.6 128.59-20.05L128.59-20.05Q128.94-21.55 129.59-23.8L129.59-23.8 129.94-25.2 130.24-26.25Q130.74-27.95 131.09-28.7L131.09-28.7Q131.19-29 131.81-30.78 132.44-32.55 132.64-33.6L132.64-33.6Q132.99-34.8 133.36-35.4 133.74-36 134.39-36L134.39-36Q134.64-36 134.89-35.55 135.14-35.1 135.39-34.45 135.64-33.8 135.74-33.5L135.74-33.5Q136.14-32.55 137.14-28.75L137.14-28.75 137.54-27.35Q137.59-26.95 139.19-22.45L139.19-22.45 140.14-19.7 141.04-17.35Q142.44-13.4 142.84-12.55L142.84-12.55Q144.59-7.25 144.89-6.15L144.89-6.15Q145.24-4.85 146.01-2.9 146.79-0.95 146.89-0.7L146.89-0.7ZM137.54-15.55Q138.19-15.55 138.19-15.9L138.19-15.9Q138.19-16.15 137.84-17L137.84-17Q137.54-17.75 136.94-19.8L136.94-19.8Q136.49-21.45 136.04-22.65L136.04-22.65Q135.54-24.15 134.96-26.2 134.39-28.25 134.29-28.85L134.29-28.85Q133.54-31.5 133.29-31.5L133.29-31.5Q133.14-31.5 132.79-30.15L132.79-30.15 132.49-29.05Q132.14-27.7 131.59-25.68 131.04-23.65 130.59-22.25L130.59-22.25Q130.29-20.95 129.76-18.98 129.24-17 128.94-16.25L128.94-16.25Q128.84-15.95 128.84-15.9L128.84-15.9Q128.84-15.55 129.16-15.45 129.49-15.35 129.81-15.38 130.14-15.4 130.24-15.4L130.24-15.4 133.14-15.5Q133.74-15.6 134.84-15.6L134.84-15.6 137.54-15.55ZM173.74-33.9Q173.74-33.65 173.66-32.6 173.59-31.55 173.59-30L173.59-30Q173.59-28.6 173.74-26.2L173.74-26.2Q173.74-24.85 171.99-24.85L171.99-24.85 163.19-24.85 163.09-19.7Q163.03-18.85 163.03-15.45L163.03-15.45Q163.03-11.95 163.09-8.65 163.14-5.35 163.14-2.95L163.14-2.95 163.19-0.9 163.19-0.65Q163.19-0.2 163.06-0.1 162.94 0 162.74 0 162.53 0 162.44 0L162.44 0 159.03 0Q158.44 0 158.34-0.2 158.24-0.4 158.24-0.93 158.24-1.45 158.24-1.7L158.24-1.7 158.44-7.9Q158.74-16 158.74-18.3L158.74-18.3Q158.74-19.6 158.64-22.2L158.64-22.2 158.59-24.85Q154.99-24.85 151.28-24.75L151.28-24.75 149.74-24.7Q149.09-24.7 148.84-25.05 148.59-25.4 148.74-25.85L148.74-25.85 148.78-27.1Q148.89-30 148.89-32.45L148.89-32.45Q148.89-33.65 148.84-33.9L148.84-33.9 148.84-34.25Q148.84-34.8 149.06-34.9 149.28-35 149.74-35L149.74-35 154.69-35 157.49-35.05Q160.09-35.15 161.14-35.15L161.14-35.15 164.14-35.1Q167.74-35 169.79-35L169.79-35Q171.29-35 171.74-35.05L171.74-35.05Q172.84-35.1 173.29-34.73 173.74-34.35 173.74-33.9L173.74-33.9ZM180.48-33.4Q180.33-32.3 180.23-27.75L180.23-27.75Q180.23-26.35 180.03-20.65L180.03-20.65Q179.83-15.15 179.83-13.95L179.83-13.95Q179.83-11.05 179.93-6.63 180.03-2.2 180.13-1.35L180.13-1.35Q180.18-1.05 180.18-0.65L180.18-0.65Q180.18-0.3 180.06-0.15 179.93 0 179.68 0.15L179.68 0.15Q179.38 0.35 178.13 0.35L178.13 0.35Q177.93 0.35 177.51 0.35 177.08 0.35 176.98 0.25 176.88 0.15 176.88-0.15L176.88-0.15 176.93-1.75 177.03-8.3 177.13-18.8Q177.13-20.3 177.33-25.6L177.33-25.6Q177.38-26.85 177.48-29.68 177.58-32.5 177.48-33L177.48-33 177.43-34.05Q177.43-35.35 178.23-35.35L178.23-35.35 180.08-35.3Q180.58-35.3 180.58-34.6L180.58-34.6Q180.58-34.35 180.53-34.02 180.48-33.7 180.48-33.4L180.48-33.4ZM195.73-35.85Q200.48-35.85 203.56-33.98 206.63-32.1 208.33-30.4L208.33-30.4Q208.53-30.2 208.53-29.95L208.53-29.95Q208.53-29.8 208.41-29.58 208.28-29.35 208.23-29.25L208.23-29.25Q207.98-28.9 207.41-28.03 206.83-27.15 206.48-26.75L206.48-26.75Q206.33-26.55 206.16-26.33 205.98-26.1 205.86-26 205.73-25.9 205.48-25.9L205.48-25.9Q205.38-25.9 205.01-26.23 204.63-26.55 204.28-26.8L204.28-26.8Q202.28-28.55 200.38-29.8 198.48-31.05 196.73-31.05L196.73-31.05Q195.33-31.05 194.43-30.43 193.53-29.8 193.53-27.6L193.53-27.6Q193.53-25.45 195.13-24.25 196.73-23.05 199.38-21.95L199.38-21.95Q199.63-21.85 202.31-20.7 204.98-19.55 207.06-16.3 209.13-13.05 209.13-8.55L209.13-8.55Q209.13-3.75 205.53-1.35 201.93 1.05 195.58 1.05L195.58 1.05Q188.38 1.05 186.43-1.73 184.48-4.5 184.38-4.6L184.38-4.6Q184.18-4.85 184.18-5.1L184.18-5.1Q184.18-5.25 184.58-5.75L184.58-5.75Q185.23-6.65 186.48-7.9L186.48-7.9Q186.68-8.1 186.88-8.1L186.88-8.1Q187.13-8.1 187.43-7.73 187.73-7.35 187.93-7.15L187.93-7.15Q190.88-4.2 194.63-4.2L194.63-4.2Q196.53-4.2 197.93-4.93 199.33-5.65 199.33-7.65L199.33-7.65Q199.33-11.1 193.88-15L193.88-15Q192.98-15.6 192.18-16L192.18-16Q190.08-17.15 188.58-18.25 187.08-19.35 185.93-21.15 184.78-22.95 184.78-25.35L184.78-25.35Q184.78-28.35 186.66-30.75 188.53-33.15 191.16-34.5 193.78-35.85 195.73-35.85L195.73-35.85ZM224.53-35.85Q229.28-35.85 232.35-33.98 235.43-32.1 237.13-30.4L237.13-30.4Q237.33-30.2 237.33-29.95L237.33-29.95Q237.33-29.8 237.2-29.58 237.08-29.35 237.03-29.25L237.03-29.25Q236.78-28.9 236.2-28.03 235.63-27.15 235.28-26.75L235.28-26.75Q235.13-26.55 234.95-26.33 234.78-26.1 234.65-26 234.53-25.9 234.28-25.9L234.28-25.9Q234.18-25.9 233.8-26.23 233.43-26.55 233.08-26.8L233.08-26.8Q231.08-28.55 229.18-29.8 227.28-31.05 225.53-31.05L225.53-31.05Q224.13-31.05 223.23-30.43 222.33-29.8 222.33-27.6L222.33-27.6Q222.33-25.45 223.93-24.25 225.53-23.05 228.18-21.95L228.18-21.95Q228.43-21.85 231.1-20.7 233.78-19.55 235.85-16.3 237.93-13.05 237.93-8.55L237.93-8.55Q237.93-3.75 234.33-1.35 230.73 1.05 224.38 1.05L224.38 1.05Q217.18 1.05 215.23-1.73 213.28-4.5 213.18-4.6L213.18-4.6Q212.98-4.85 212.98-5.1L212.98-5.1Q212.98-5.25 213.38-5.75L213.38-5.75Q214.03-6.65 215.28-7.9L215.28-7.9Q215.48-8.1 215.68-8.1L215.68-8.1Q215.93-8.1 216.23-7.73 216.53-7.35 216.73-7.15L216.73-7.15Q219.68-4.2 223.43-4.2L223.43-4.2Q225.33-4.2 226.73-4.93 228.13-5.65 228.13-7.65L228.13-7.65Q228.13-11.1 222.68-15L222.68-15Q221.78-15.6 220.98-16L220.98-16Q218.88-17.15 217.38-18.25 215.88-19.35 214.73-21.15 213.58-22.95 213.58-25.35L213.58-25.35Q213.58-28.35 215.45-30.75 217.33-33.15 219.95-34.5 222.58-35.85 224.53-35.85L224.53-35.85ZM263.23-29.85Q263.23-28.85 263.08-28L263.08-28Q263.03-27.25 262.38-27.25L262.38-27.25Q262.18-27.25 261.83-27.35 261.48-27.45 261.28-27.5L261.28-27.5Q260.53-27.65 256.93-27.65L256.93-27.65 255.03-27.7Q254.38-27.75 253.13-27.75L253.13-27.75Q252.23-27.75 251.78-27.7L251.78-27.7Q250.28-27.6 249.13-27.6L249.13-27.6 246.48-27.65Q246.08-27.65 246.03-27.48 245.98-27.3 245.98-26.65L245.98-26.65Q245.98-25.75 245.93-25.1L245.93-25.1Q245.83-23.1 245.83-21.85L245.83-21.85 245.83-18.9Q245.83-17.85 245.88-17.3L245.88-17.3Q246.28-17.25 247.23-17.25L247.23-17.25Q248.08-17.2 250.73-17.2L250.73-17.2Q251.83-17.2 253.93-17.3L253.93-17.3Q255.53-17.4 256.03-17.4L256.03-17.4Q256.73-17.4 257.43-17.32 258.13-17.25 258.48-17.25L258.48-17.25Q259.13-17.25 259.13-16.65L259.13-16.65Q259.13-16.45 259.08-16.07 259.03-15.7 259.03-15.1L259.03-15.1 259.08-12.45Q259.08-12 258.98-11.83 258.88-11.65 258.63-11.65L258.63-11.65Q258.48-11.65 258.2-11.73 257.93-11.8 257.73-11.8L257.73-11.8Q257.28-11.8 256.05-11.85 254.83-11.9 252.73-11.9L252.73-11.9Q250.48-11.9 248.83-11.7 247.18-11.5 246.83-11.5L246.83-11.5Q246.28-11.5 246.18-11.55L246.18-11.55Q245.93-11.55 245.88-11.6L245.88-11.6 245.88-6.6Q246.23-6.6 246.43-6.65L246.43-6.65 247.83-6.7 253.73-6.75Q255.53-6.75 256.58-6.7L256.58-6.7 260.03-6.65 262.13-6.7Q262.73-6.7 262.93-6.43 263.13-6.15 263.13-5.65L263.13-5.65 263.08-4.65 263.03-1.15Q263.03-0.35 262.68-0.18 262.33 0 261.68-0.03 261.03-0.05 260.63-0.05L260.63-0.05Q258.48-0.05 256.93-0.1L256.93-0.1 251.83-0.15Q251.23-0.15 245.83 0L245.83 0 243.93 0.05 243.63 0.1Q243.33 0.1 243.28-0.08 243.23-0.25 243.23-0.75L243.23-0.75Q243.18-1.3 243.18-2.6L243.18-2.6Q243.18-3 243.13-3.48 243.08-3.95 243.08-4.75L243.08-4.75 243.08-11.6Q243.08-12.6 243.15-13.55 243.23-14.5 243.23-14.95L243.23-14.95Q243.43-17.25 243.43-19.35L243.43-19.35Q243.43-21.95 243.28-23.45L243.28-23.45Q243.18-25.15 243.18-26.55L243.18-26.55Q243.18-29.7 243.33-33.9L243.33-33.9Q243.33-34.55 243.58-34.77 243.83-35 244.28-35L244.28-35 245.03-34.95Q245.48-34.95 246.48-34.88 247.48-34.8 248.93-34.8L248.93-34.8Q250.58-34.8 252.83-35.05L252.83-35.05Q255.53-35.25 256.43-35.25L256.43-35.25Q258.48-35.25 260.18-35.1L260.18-35.1 261.98-35.05Q262.63-35.05 262.83-34.75 263.03-34.45 263.03-33.65L263.03-33.65Q263.03-33.2 263.13-32.1L263.13-32.1Q263.23-30.8 263.23-29.85L263.23-29.85ZM291.67-1.4Q292.37-0.3 292.37 0.05L292.37 0.05Q292.37 0.25 292.12 0.3 291.87 0.35 291.7 0.35 291.52 0.35 291.42 0.35L291.42 0.35 285.77 0.5Q285.37 0.5 285.15 0.15 284.92-0.2 284.52-1.1L284.52-1.1Q284.27-1.85 283.62-3.1L283.62-3.1Q282.62-4.9 280.17-9.85L280.17-9.85 277.62-14.8 277.77-12.15 278.02-8.35Q278.32-1.65 278.52-0.95L278.52-0.95Q278.57-0.75 278.57-0.45L278.57-0.45Q278.57 0.45 277.62 0.45L277.62 0.45Q277.32 0.45 277.12 0.4L277.12 0.4Q276.32 0.3 273.22 0.6L273.22 0.6Q271.12 0.8 270.67 0.8L270.67 0.8Q270.02 0.8 269.8 0.55 269.57 0.3 269.57-0.3L269.57-0.3 269.62-1.45 269.52-4.35Q269.22-9.55 269.22-13.4L269.22-13.4Q269.22-15.4 269.37-16.15L269.37-16.15Q269.62-17.4 269.62-23.2L269.62-23.2Q269.62-29.25 269.42-32.35L269.42-32.35Q269.37-32.75 269.37-33.45L269.37-33.45Q269.37-34.25 269.52-34.6 269.67-34.95 269.85-34.98 270.02-35 270.47-35L270.47-35 271.57-35.1Q275.02-35.5 277.07-35.5L277.07-35.5Q282.67-35.5 285.5-32.63 288.32-29.75 288.32-25.15L288.32-25.15Q288.32-21.5 285.97-18.15L285.97-18.15Q284.97-16.7 283.67-15.55L283.67-15.55 287.17-9.2Q291.02-2.3 291.67-1.4L291.67-1.4ZM277.32-21.45Q278.07-21.45 278.67-21.75L278.67-21.75Q280.07-22.4 280.07-24.4L280.07-24.4Q280.07-25.85 279.62-26.55 279.17-27.25 278.47-27.25L278.47-27.25Q277.92-27.25 277.52-26.85L277.52-26.85Q277.47-26.8 277.52-26.15 277.57-25.5 277.57-24.85L277.57-24.85Q277.57-24.3 277.52-24.05L277.52-24.05Q277.32-23.2 277.32-22.3L277.32-22.3 277.27-21.85 277.32-21.45ZM299.32-33.4Q299.17-32.3 299.07-27.75L299.07-27.75Q299.07-26.35 298.87-20.65L298.87-20.65Q298.67-15.15 298.67-13.95L298.67-13.95Q298.67-11.05 298.77-6.63 298.87-2.2 298.97-1.35L298.97-1.35Q299.02-1.05 299.02-0.65L299.02-0.65Q299.02-0.3 298.9-0.15 298.77 0 298.52 0.15L298.52 0.15Q298.22 0.35 296.97 0.35L296.97 0.35Q296.77 0.35 296.35 0.35 295.92 0.35 295.82 0.25 295.72 0.15 295.72-0.15L295.72-0.15 295.77-1.75 295.87-8.3 295.97-18.8Q295.97-20.3 296.17-25.6L296.17-25.6Q296.22-26.85 296.32-29.68 296.42-32.5 296.32-33L296.32-33 296.27-34.05Q296.27-35.35 297.07-35.35L297.07-35.35 298.92-35.3Q299.42-35.3 299.42-34.6L299.42-34.6Q299.42-34.35 299.37-34.02 299.32-33.7 299.32-33.4L299.32-33.4ZM324.47-29.85Q324.47-28.85 324.32-28L324.32-28Q324.27-27.25 323.62-27.25L323.62-27.25Q323.42-27.25 323.07-27.35 322.72-27.45 322.52-27.5L322.52-27.5Q321.77-27.65 318.17-27.65L318.17-27.65 316.27-27.7Q315.62-27.75 314.37-27.75L314.37-27.75Q313.47-27.75 313.02-27.7L313.02-27.7Q311.52-27.6 310.37-27.6L310.37-27.6 307.72-27.65Q307.32-27.65 307.27-27.48 307.22-27.3 307.22-26.65L307.22-26.65Q307.22-25.75 307.17-25.1L307.17-25.1Q307.07-23.1 307.07-21.85L307.07-21.85 307.07-18.9Q307.07-17.85 307.12-17.3L307.12-17.3Q307.52-17.25 308.47-17.25L308.47-17.25Q309.32-17.2 311.97-17.2L311.97-17.2Q313.07-17.2 315.17-17.3L315.17-17.3Q316.77-17.4 317.27-17.4L317.27-17.4Q317.97-17.4 318.67-17.32 319.37-17.25 319.72-17.25L319.72-17.25Q320.37-17.25 320.37-16.65L320.37-16.65Q320.37-16.45 320.32-16.07 320.27-15.7 320.27-15.1L320.27-15.1 320.32-12.45Q320.32-12 320.22-11.83 320.12-11.65 319.87-11.65L319.87-11.65Q319.72-11.65 319.44-11.73 319.17-11.8 318.97-11.8L318.97-11.8Q318.52-11.8 317.29-11.85 316.07-11.9 313.97-11.9L313.97-11.9Q311.72-11.9 310.07-11.7 308.42-11.5 308.07-11.5L308.07-11.5Q307.52-11.5 307.42-11.55L307.42-11.55Q307.17-11.55 307.12-11.6L307.12-11.6 307.12-6.6Q307.47-6.6 307.67-6.65L307.67-6.65 309.07-6.7 314.97-6.75Q316.77-6.75 317.82-6.7L317.82-6.7 321.27-6.65 323.37-6.7Q323.97-6.7 324.17-6.43 324.37-6.15 324.37-5.65L324.37-5.65 324.32-4.65 324.27-1.15Q324.27-0.35 323.92-0.18 323.57 0 322.92-0.03 322.27-0.05 321.87-0.05L321.87-0.05Q319.72-0.05 318.17-0.1L318.17-0.1 313.07-0.15Q312.47-0.15 307.07 0L307.07 0 305.17 0.05 304.87 0.1Q304.57 0.1 304.52-0.08 304.47-0.25 304.47-0.75L304.47-0.75Q304.42-1.3 304.42-2.6L304.42-2.6Q304.42-3 304.37-3.48 304.32-3.95 304.32-4.75L304.32-4.75 304.32-11.6Q304.32-12.6 304.39-13.55 304.47-14.5 304.47-14.95L304.47-14.95Q304.67-17.25 304.67-19.35L304.67-19.35Q304.67-21.95 304.52-23.45L304.52-23.45Q304.42-25.15 304.42-26.55L304.42-26.55Q304.42-29.7 304.57-33.9L304.57-33.9Q304.57-34.55 304.82-34.77 305.07-35 305.52-35L305.52-35 306.27-34.95Q306.72-34.95 307.72-34.88 308.72-34.8 310.17-34.8L310.17-34.8Q311.82-34.8 314.07-35.05L314.07-35.05Q316.77-35.25 317.67-35.25L317.67-35.25Q319.72-35.25 321.42-35.1L321.42-35.1 323.22-35.05Q323.87-35.05 324.07-34.75 324.27-34.45 324.27-33.65L324.27-33.65Q324.27-33.2 324.37-32.1L324.37-32.1Q324.47-30.8 324.47-29.85L324.47-29.85ZM340.82-35.85Q345.57-35.85 348.64-33.98 351.72-32.1 353.42-30.4L353.42-30.4Q353.62-30.2 353.62-29.95L353.62-29.95Q353.62-29.8 353.49-29.58 353.37-29.35 353.32-29.25L353.32-29.25Q353.07-28.9 352.49-28.03 351.92-27.15 351.57-26.75L351.57-26.75Q351.42-26.55 351.24-26.33 351.07-26.1 350.94-26 350.82-25.9 350.57-25.9L350.57-25.9Q350.47-25.9 350.09-26.23 349.72-26.55 349.37-26.8L349.37-26.8Q347.37-28.55 345.47-29.8 343.57-31.05 341.82-31.05L341.82-31.05Q340.42-31.05 339.52-30.43 338.62-29.8 338.62-27.6L338.62-27.6Q338.62-25.45 340.22-24.25 341.82-23.05 344.47-21.95L344.47-21.95Q344.72-21.85 347.39-20.7 350.07-19.55 352.14-16.3 354.22-13.05 354.22-8.55L354.22-8.55Q354.22-3.75 350.62-1.35 347.02 1.05 340.67 1.05L340.67 1.05Q333.47 1.05 331.52-1.73 329.57-4.5 329.47-4.6L329.47-4.6Q329.27-4.85 329.27-5.1L329.27-5.1Q329.27-5.25 329.67-5.75L329.67-5.75Q330.32-6.65 331.57-7.9L331.57-7.9Q331.77-8.1 331.97-8.1L331.97-8.1Q332.22-8.1 332.52-7.73 332.82-7.35 333.02-7.15L333.02-7.15Q335.97-4.2 339.72-4.2L339.72-4.2Q341.62-4.2 343.02-4.93 344.42-5.65 344.42-7.65L344.42-7.65Q344.42-11.1 338.97-15L338.97-15Q338.07-15.6 337.27-16L337.27-16Q335.17-17.15 333.67-18.25 332.17-19.35 331.02-21.15 329.87-22.95 329.87-25.35L329.87-25.35Q329.87-28.35 331.74-30.75 333.62-33.15 336.24-34.5 338.87-35.85 340.82-35.85L340.82-35.85ZM383.16-35Q386.21-35 389.66-33.38 393.11-31.75 395.71-27.45 398.31-23.15 398.31-15.75L398.31-15.75Q398.31-9 395.09-5.53 391.86-2.05 388.31-1.07 384.76-0.1 382.41-0.1L382.41-0.1 378.31-0.05Q377.21 0 375.61 0L375.61 0Q374.66 0 374.66-1.7L374.66-1.7 374.71-3 374.61-5.5 374.56-7.75 374.51-9.25Q374.31-11.85 374.31-15.15L374.31-15.15Q374.31-17.1 374.51-20.3L374.51-20.3Q374.71-23.5 374.71-25.55L374.71-25.55 374.66-32.25Q374.61-33.05 374.61-34.05L374.61-34.05Q374.61-34.6 375.34-34.73 376.06-34.85 376.86-34.83 377.66-34.8 377.96-34.8L377.96-34.8 379.76-34.9Q381.86-35 383.16-35L383.16-35ZM383.26-10.7Q384.61-11.35 385.76-12.5L385.76-12.5Q388.26-14.9 388.26-18.2L388.26-18.2Q388.26-21.35 385.86-23.25L385.86-23.25Q384.81-24.05 383.51-24.45L383.51-24.45Q383.61-23.35 383.61-22.75L383.61-22.75Q383.61-21.8 383.51-20L383.51-20Q383.41-18.3 383.41-17.5L383.41-17.5Q383.41-16.2 383.31-13.3L383.31-13.3Q383.26-12.45 383.26-10.7L383.26-10.7ZM423.36-29.85Q423.36-28.85 423.21-28L423.21-28Q423.16-27.25 422.51-27.25L422.51-27.25Q422.31-27.25 421.96-27.35 421.61-27.45 421.41-27.5L421.41-27.5Q420.66-27.65 417.06-27.65L417.06-27.65 415.16-27.7Q414.51-27.75 413.26-27.75L413.26-27.75Q412.36-27.75 411.91-27.7L411.91-27.7Q410.41-27.6 409.26-27.6L409.26-27.6 406.61-27.65Q406.21-27.65 406.16-27.48 406.11-27.3 406.11-26.65L406.11-26.65Q406.11-25.75 406.06-25.1L406.06-25.1Q405.96-23.1 405.96-21.85L405.96-21.85 405.96-18.9Q405.96-17.85 406.01-17.3L406.01-17.3Q406.41-17.25 407.36-17.25L407.36-17.25Q408.21-17.2 410.86-17.2L410.86-17.2Q411.96-17.2 414.06-17.3L414.06-17.3Q415.66-17.4 416.16-17.4L416.16-17.4Q416.86-17.4 417.56-17.32 418.26-17.25 418.61-17.25L418.61-17.25Q419.26-17.25 419.26-16.65L419.26-16.65Q419.26-16.45 419.21-16.07 419.16-15.7 419.16-15.1L419.16-15.1 419.21-12.45Q419.21-12 419.11-11.83 419.01-11.65 418.76-11.65L418.76-11.65Q418.61-11.65 418.33-11.73 418.06-11.8 417.86-11.8L417.86-11.8Q417.41-11.8 416.18-11.85 414.96-11.9 412.86-11.9L412.86-11.9Q410.61-11.9 408.96-11.7 407.31-11.5 406.96-11.5L406.96-11.5Q406.41-11.5 406.31-11.55L406.31-11.55Q406.06-11.55 406.01-11.6L406.01-11.6 406.01-6.6Q406.36-6.6 406.56-6.65L406.56-6.65 407.96-6.7 413.86-6.75Q415.66-6.75 416.71-6.7L416.71-6.7 420.16-6.65 422.26-6.7Q422.86-6.7 423.06-6.43 423.26-6.15 423.26-5.65L423.26-5.65 423.21-4.65 423.16-1.15Q423.16-0.35 422.81-0.18 422.46 0 421.81-0.03 421.16-0.05 420.76-0.05L420.76-0.05Q418.61-0.05 417.06-0.1L417.06-0.1 411.96-0.15Q411.36-0.15 405.96 0L405.96 0 404.06 0.05 403.76 0.1Q403.46 0.1 403.41-0.08 403.36-0.25 403.36-0.75L403.36-0.75Q403.31-1.3 403.31-2.6L403.31-2.6Q403.31-3 403.26-3.48 403.21-3.95 403.21-4.75L403.21-4.75 403.21-11.6Q403.21-12.6 403.28-13.55 403.36-14.5 403.36-14.95L403.36-14.95Q403.56-17.25 403.56-19.35L403.56-19.35Q403.56-21.95 403.41-23.45L403.41-23.45Q403.31-25.15 403.31-26.55L403.31-26.55Q403.31-29.7 403.46-33.9L403.46-33.9Q403.46-34.55 403.71-34.77 403.96-35 404.41-35L404.41-35 405.16-34.95Q405.61-34.95 406.61-34.88 407.61-34.8 409.06-34.8L409.06-34.8Q410.71-34.8 412.96-35.05L412.96-35.05Q415.66-35.25 416.56-35.25L416.56-35.25Q418.61-35.25 420.31-35.1L420.31-35.1 422.11-35.05Q422.76-35.05 422.96-34.75 423.16-34.45 423.16-33.65L423.16-33.65Q423.16-33.2 423.26-32.1L423.26-32.1Q423.36-30.8 423.36-29.85L423.36-29.85ZM447-34.5L450.8-34.6 454-34.7Q454.6-34.7 455.35-34.75 456.1-34.8 456.85-34.85L456.85-34.85Q458.55-35 459.65-35L459.65-35 463.85-34.95Q465-34.95 465-34.2L465-34.2 465-31.7Q465-31.25 464.83-31.18 464.65-31.1 464.1-31.1L464.1-31.1Q463.45-31.1 462.95-31.15L462.95-31.15 459.75-31.2Q457.85-31.2 456.05-31L456.05-31 453.6-30.85 453.45-29.95Q453.35-28.85 453.35-28.2L453.35-28.2 453.3-23.75 453.25-21.2 453.25-20Q454.3-20 454.8-20.05L454.8-20.05 457.2-20.1 459.2-20.15Q459.9-20.2 461.15-20.2L461.15-20.2Q461.95-20.2 462.23-20 462.5-19.8 462.5-19.35L462.5-19.35 462.45-17.7Q462.45-17.3 462.23-17.15 462-17 461.3-17L461.3-17Q460.4-17 459.8-17.05L459.8-17.05 457.8-17.1 453.15-17.1Q453.15-15.8 453.2-15.2L453.2-15.2 453.25-12.05 453.2-9.6Q453.1-8 453.1-7.15L453.1-7.15 453.15-1.25Q453.15-0.6 452.88-0.35 452.6-0.1 452-0.1L452-0.1Q451.75-0.1 450.85-0.2L450.85-0.2Q450.4-0.25 449-0.25L449-0.25 445.35-0.2Q444.8-0.25 444.68-0.4 444.55-0.55 444.55-0.83 444.55-1.1 444.55-1.2L444.55-1.2 444.5-3.85Q444.5-4.55 444.45-5.05L444.45-5.05 444.4-8.45Q444.4-9.2 444.48-9.98 444.55-10.75 444.55-11.1L444.55-11.1Q444.7-12.25 444.7-13.7L444.7-13.7 444.65-19.4 444.7-22.7Q444.8-25 444.8-26.2L444.8-26.2Q444.8-29 444.7-33.1L444.7-33.1Q444.7-34 444.93-34.3 445.15-34.6 445.6-34.6L445.6-34.6Q445.9-34.6 446.23-34.55 446.55-34.5 447-34.5L447-34.5ZM489.75-0.7Q489.9-0.35 489.9-0.2L489.9-0.2Q489.9 0 489.35 0L489.35 0 486.55 0Q486.35 0 486.23-0.08 486.1-0.15 486-0.45L486-0.45Q485.8-1 485.45-2.25L485.45-2.25Q485-3.5 484.85-4.5L484.85-4.5Q484.7-5.25 484.38-6.3 484.05-7.35 483.8-7.9L483.8-7.9Q483.35-8.85 483-10.05L483-10.05 482.55-11.5Q482.3-12.05 482.18-12.18 482.05-12.3 481.75-12.3L481.75-12.3Q480.7-12.3 480.2-12.25L480.2-12.25 478.05-12.15Q477.65-12.1 474.35-12.1L474.35-12.1 471.3-12.1 471.2-12.1Q470.9-12.1 470.75-11.55L470.75-11.55 470.65-11.05 470.45-10.1Q470.35-9.85 469.8-7.2L469.8-7.2Q469.65-6.35 469.3-5L469.3-5Q469.2-4 468.85-3.35L468.85-3.35Q468.75-3.2 468.6-2.65 468.45-2.1 468.35-1.75L468.35-1.75Q468.2-1.35 468-0.45L468-0.45Q467.95-0.4 467.9-0.23 467.85-0.05 467.75-0.03 467.65 0 467.45 0L467.45 0 466.45 0Q466 0 466.2-0.65L466.2-0.65Q466.2-0.8 466.25-0.9L466.25-0.9Q466.25-1 466.3-1.15 466.35-1.3 466.45-1.6L466.45-1.6 466.9-3.45Q467-3.75 467.25-4.5 467.5-5.25 467.6-5.9L467.6-5.9Q467.85-7.1 468.55-9.55L468.55-9.55 468.95-10.95Q469.9-14.05 470.15-15.3L470.15-15.3 470.85-17.95Q471.35-19.6 471.45-20.05L471.45-20.05Q471.8-21.55 472.45-23.8L472.45-23.8 472.8-25.2 473.1-26.25Q473.6-27.95 473.95-28.7L473.95-28.7Q474.05-29 474.68-30.78 475.3-32.55 475.5-33.6L475.5-33.6Q475.85-34.8 476.23-35.4 476.6-36 477.25-36L477.25-36Q477.5-36 477.75-35.55 478-35.1 478.25-34.45 478.5-33.8 478.6-33.5L478.6-33.5Q479-32.55 480-28.75L480-28.75 480.4-27.35Q480.45-26.95 482.05-22.45L482.05-22.45 483-19.7 483.9-17.35Q485.3-13.4 485.7-12.55L485.7-12.55Q487.45-7.25 487.75-6.15L487.75-6.15Q488.1-4.85 488.88-2.9 489.65-0.95 489.75-0.7L489.75-0.7ZM480.4-15.55Q481.05-15.55 481.05-15.9L481.05-15.9Q481.05-16.15 480.7-17L480.7-17Q480.4-17.75 479.8-19.8L479.8-19.8Q479.35-21.45 478.9-22.65L478.9-22.65Q478.4-24.15 477.83-26.2 477.25-28.25 477.15-28.85L477.15-28.85Q476.4-31.5 476.15-31.5L476.15-31.5Q476-31.5 475.65-30.15L475.65-30.15 475.35-29.05Q475-27.7 474.45-25.68 473.9-23.65 473.45-22.25L473.45-22.25Q473.15-20.95 472.63-18.98 472.1-17 471.8-16.25L471.8-16.25Q471.7-15.95 471.7-15.9L471.7-15.9Q471.7-15.55 472.03-15.45 472.35-15.35 472.68-15.38 473-15.4 473.1-15.4L473.1-15.4 476-15.5Q476.6-15.6 477.7-15.6L477.7-15.6 480.4-15.55ZM495.9-34.55Q495.85-33.95 495.8-27.55 495.75-21.15 495.75-14.4L495.75-14.4Q495.75-11.5 496.47-9.2 497.2-6.9 498.5-5.6 499.8-4.3 501.4-4.3L501.4-4.3Q503.6-4.3 504.57-5.58 505.55-6.85 505.55-8.25L505.55-8.25 505.65-11.3Q505.8-18.8 505.8-19.6L505.8-19.6Q505.8-20.75 505.9-24.15L505.9-24.15Q506.05-27 506.05-29.75L506.05-29.75Q506.05-32.2 505.85-33.2L505.85-33.2Q505.7-33.8 505.7-34.15L505.7-34.15Q505.7-34.85 506.02-35.02 506.35-35.2 506.67-35.18 507-35.15 507.1-35.15L507.1-35.15Q507.6-35.1 508.22-35.13 508.85-35.15 509.35-35.15L509.35-35.15 510.65-35.15Q511.45-35.15 511.57-34.93 511.7-34.7 511.75-33.95L511.75-33.95Q511.85-32.85 511.85-31.25L511.85-31.25Q511.85-30.15 511.8-29.65L511.8-29.65Q511.75-29.15 511.85-25.45L511.85-25.45Q512.1-19.35 512.1-15.4L512.1-15.4 512.1-12.35Q512-5.9 509.02-3.03 506.05-0.15 501.85-0.15L501.85-0.15Q498.65-0.15 496.7-2.27 494.75-4.4 493.95-7L493.95-7Q493.6-8.15 493.42-10.58 493.25-13 493.25-15.55L493.25-15.55Q493.25-18.4 493.4-19.35L493.4-19.35Q493.5-20.05 493.5-24L493.5-24Q493.5-30.3 493.3-33.1L493.3-33.1Q493.25-33.4 493.25-33.9L493.25-33.9Q493.25-35.45 494.2-35.05L494.2-35.05 494.75-35Q494.95-35 495.17-35.05 495.4-35.1 495.65-35.1L495.65-35.1Q495.9-35.1 495.9-34.55L495.9-34.55ZM528.25-35.85Q533-35.85 536.07-33.98 539.15-32.1 540.85-30.4L540.85-30.4Q541.05-30.2 541.05-29.95L541.05-29.95Q541.05-29.8 540.92-29.58 540.8-29.35 540.75-29.25L540.75-29.25Q540.5-28.9 539.92-28.03 539.35-27.15 539-26.75L539-26.75Q538.85-26.55 538.67-26.33 538.5-26.1 538.37-26 538.25-25.9 538-25.9L538-25.9Q537.9-25.9 537.52-26.23 537.15-26.55 536.8-26.8L536.8-26.8Q534.8-28.55 532.9-29.8 531-31.05 529.25-31.05L529.25-31.05Q527.85-31.05 526.95-30.43 526.05-29.8 526.05-27.6L526.05-27.6Q526.05-25.45 527.65-24.25 529.25-23.05 531.9-21.95L531.9-21.95Q532.15-21.85 534.82-20.7 537.5-19.55 539.57-16.3 541.65-13.05 541.65-8.55L541.65-8.55Q541.65-3.75 538.05-1.35 534.45 1.05 528.1 1.05L528.1 1.05Q520.9 1.05 518.95-1.73 517-4.5 516.9-4.6L516.9-4.6Q516.7-4.85 516.7-5.1L516.7-5.1Q516.7-5.25 517.1-5.75L517.1-5.75Q517.75-6.65 519-7.9L519-7.9Q519.2-8.1 519.4-8.1L519.4-8.1Q519.65-8.1 519.95-7.73 520.25-7.35 520.45-7.15L520.45-7.15Q523.4-4.2 527.15-4.2L527.15-4.2Q529.05-4.2 530.45-4.93 531.85-5.65 531.85-7.65L531.85-7.65Q531.85-11.1 526.4-15L526.4-15Q525.5-15.6 524.7-16L524.7-16Q522.6-17.15 521.1-18.25 519.6-19.35 518.45-21.15 517.3-22.95 517.3-25.35L517.3-25.35Q517.3-28.35 519.17-30.75 521.05-33.15 523.67-34.5 526.3-35.85 528.25-35.85L528.25-35.85ZM569.79-33.9Q569.79-33.65 569.72-32.6 569.64-31.55 569.64-30L569.64-30Q569.64-28.6 569.79-26.2L569.79-26.2Q569.79-24.85 568.04-24.85L568.04-24.85 559.24-24.85 559.14-19.7Q559.09-18.85 559.09-15.45L559.09-15.45Q559.09-11.95 559.14-8.65 559.19-5.35 559.19-2.95L559.19-2.95 559.24-0.9 559.24-0.65Q559.24-0.2 559.12-0.1 558.99 0 558.79 0 558.59 0 558.49 0L558.49 0 555.09 0Q554.49 0 554.39-0.2 554.29-0.4 554.29-0.93 554.29-1.45 554.29-1.7L554.29-1.7 554.49-7.9Q554.79-16 554.79-18.3L554.79-18.3Q554.79-19.6 554.69-22.2L554.69-22.2 554.64-24.85Q551.04-24.85 547.34-24.75L547.34-24.75 545.79-24.7Q545.14-24.7 544.89-25.05 544.64-25.4 544.79-25.85L544.79-25.85 544.84-27.1Q544.94-30 544.94-32.45L544.94-32.45Q544.94-33.65 544.89-33.9L544.89-33.9 544.89-34.25Q544.89-34.8 545.12-34.9 545.34-35 545.79-35L545.79-35 550.74-35 553.54-35.05Q556.14-35.15 557.19-35.15L557.19-35.15 560.19-35.1Q563.79-35 565.84-35L565.84-35Q567.34-35 567.79-35.05L567.79-35.05Q568.89-35.1 569.34-34.73 569.79-34.35 569.79-33.9L569.79-33.9ZM576.54-33.4Q576.39-32.3 576.29-27.75L576.29-27.75Q576.29-26.35 576.09-20.65L576.09-20.65Q575.89-15.15 575.89-13.95L575.89-13.95Q575.89-11.05 575.99-6.63 576.09-2.2 576.19-1.35L576.19-1.35Q576.24-1.05 576.24-0.65L576.24-0.65Q576.24-0.3 576.12-0.15 575.99 0 575.74 0.15L575.74 0.15Q575.44 0.35 574.19 0.35L574.19 0.35Q573.99 0.35 573.57 0.35 573.14 0.35 573.04 0.25 572.94 0.15 572.94-0.15L572.94-0.15 572.99-1.75 573.09-8.3 573.19-18.8Q573.19-20.3 573.39-25.6L573.39-25.6Q573.44-26.85 573.54-29.68 573.64-32.5 573.54-33L573.54-33 573.49-34.05Q573.49-35.35 574.29-35.35L574.29-35.35 576.14-35.3Q576.64-35.3 576.64-34.6L576.64-34.6Q576.64-34.35 576.59-34.02 576.54-33.7 576.54-33.4L576.54-33.4ZM585.44-36.15L589.69-36.2Q590.79-36.2 591.31-35.98 591.84-35.75 592.14-35.2L592.14-35.2Q592.64-34.15 593.39-32.5L593.39-32.5 595.24-28.5 597.59-23.35Q598.24-21.95 599.29-19.65 600.34-17.35 600.79-16.45L600.79-16.45Q601.64-14.7 601.89-14.3L601.89-14.3 603.29-11.55 604.84-8.5 604.74-11.4 604.54-16.3 604.54-17.8Q604.54-20.55 604.64-23.35L604.64-23.35Q604.64-25.45 604.59-26.75L604.59-26.75 604.54-30.55 604.74-35.35Q604.74-36.1 605.49-36.1L605.49-36.1Q605.74-36.1 606.49-35.95L606.49-35.95Q606.94-35.85 607.44-35.85 607.94-35.85 608.24-35.85L608.24-35.85Q608.64-35.85 608.76-35.75 608.89-35.65 608.89-35.4L608.89-35.4Q608.89-35.2 608.84-34.95 608.79-34.7 608.79-34.4L608.79-34.4 608.74-30.1 608.64-20 608.59-18.55Q608.59-16.85 608.64-15.45 608.69-14.05 608.74-13.15L608.74-13.15Q608.89-11 608.89-9.55L608.89-9.55Q608.89-9.75 609.04-3.6L609.04-3.6 609.14-0.8 609.14-0.7Q609.14 0.3 608.19 0.2L608.19 0.2Q608.04 0.15 607.59 0.15L607.59 0.15 606.14 0.2 605.84 0.2Q605.49 0.2 605.31 0.05 605.14-0.1 604.74-0.8L604.74-0.8Q604.59-1.15 604.34-1.8 604.09-2.45 603.74-3.25L603.74-3.25Q601.59-8.65 600.64-10.6L600.64-10.6Q599.54-12.7 595.09-22.65L595.09-22.65Q594.09-24.7 592.84-27L592.84-27 591.39-29.6 591.54-24.85 591.59-21.9Q591.69-18.6 591.69-17.55L591.69-17.55Q591.69-13.45 591.84-9.3L591.84-9.3 591.89-5.4Q591.89-4.35 591.99-2.35L591.99-2.35 592.09-0.6 592.09-0.5Q592.09 0 591.84 0.15 591.59 0.3 591.14 0.3L591.14 0.3 590.04 0.35Q588.99 0.5 587.79 0.5L587.79 0.5Q586.39 0.5 585.49 0.55L585.49 0.55 582.94 0.6Q582.19 0.6 581.94 0.33 581.69 0.05 581.64-0.3 581.59-0.65 581.54-0.8L581.54-0.8Q581.34-1.7 581.34-3L581.34-3Q581.34-4.2 581.39-5.05L581.39-5.05Q581.39-7.65 581.49-11.13 581.59-14.6 581.74-16.1L581.74-16.1 581.99-19.65Q582.59-27.95 582.59-29L582.59-29Q582.59-32.95 582.74-34.9L582.74-34.9Q582.84-36.25 584.14-36.25L584.14-36.25Q584.54-36.25 584.89-36.2 585.24-36.15 585.44-36.15L585.44-36.15ZM635.48-29.85Q635.48-28.85 635.33-28L635.33-28Q635.28-27.25 634.63-27.25L634.63-27.25Q634.43-27.25 634.08-27.35 633.73-27.45 633.53-27.5L633.53-27.5Q632.78-27.65 629.18-27.65L629.18-27.65 627.28-27.7Q626.63-27.75 625.38-27.75L625.38-27.75Q624.48-27.75 624.03-27.7L624.03-27.7Q622.53-27.6 621.38-27.6L621.38-27.6 618.73-27.65Q618.33-27.65 618.28-27.48 618.23-27.3 618.23-26.65L618.23-26.65Q618.23-25.75 618.18-25.1L618.18-25.1Q618.08-23.1 618.08-21.85L618.08-21.85 618.08-18.9Q618.08-17.85 618.13-17.3L618.13-17.3Q618.53-17.25 619.48-17.25L619.48-17.25Q620.33-17.2 622.98-17.2L622.98-17.2Q624.08-17.2 626.18-17.3L626.18-17.3Q627.78-17.4 628.28-17.4L628.28-17.4Q628.98-17.4 629.68-17.32 630.38-17.25 630.73-17.25L630.73-17.25Q631.38-17.25 631.38-16.65L631.38-16.65Q631.38-16.45 631.33-16.07 631.28-15.7 631.28-15.1L631.28-15.1 631.33-12.45Q631.33-12 631.23-11.83 631.13-11.65 630.88-11.65L630.88-11.65Q630.73-11.65 630.46-11.73 630.18-11.8 629.98-11.8L629.98-11.8Q629.53-11.8 628.31-11.85 627.08-11.9 624.98-11.9L624.98-11.9Q622.73-11.9 621.08-11.7 619.43-11.5 619.08-11.5L619.08-11.5Q618.53-11.5 618.43-11.55L618.43-11.55Q618.18-11.55 618.13-11.6L618.13-11.6 618.13-6.6Q618.48-6.6 618.68-6.65L618.68-6.65 620.08-6.7 625.98-6.75Q627.78-6.75 628.83-6.7L628.83-6.7 632.28-6.65 634.38-6.7Q634.98-6.7 635.18-6.43 635.38-6.15 635.38-5.65L635.38-5.65 635.33-4.65 635.28-1.15Q635.28-0.35 634.93-0.18 634.58 0 633.93-0.03 633.28-0.05 632.88-0.05L632.88-0.05Q630.73-0.05 629.18-0.1L629.18-0.1 624.08-0.15Q623.48-0.15 618.08 0L618.08 0 616.18 0.05 615.88 0.1Q615.58 0.1 615.53-0.08 615.48-0.25 615.48-0.75L615.48-0.75Q615.43-1.3 615.43-2.6L615.43-2.6Q615.43-3 615.38-3.48 615.33-3.95 615.33-4.75L615.33-4.75 615.33-11.6Q615.33-12.6 615.41-13.55 615.48-14.5 615.48-14.95L615.48-14.95Q615.68-17.25 615.68-19.35L615.68-19.35Q615.68-21.95 615.53-23.45L615.53-23.45Q615.43-25.15 615.43-26.55L615.43-26.55Q615.43-29.7 615.58-33.9L615.58-33.9Q615.58-34.55 615.83-34.77 616.08-35 616.53-35L616.53-35 617.28-34.95Q617.73-34.95 618.73-34.88 619.73-34.8 621.18-34.8L621.18-34.8Q622.83-34.8 625.08-35.05L625.08-35.05Q627.78-35.25 628.68-35.25L628.68-35.25Q630.73-35.25 632.43-35.1L632.43-35.1 634.23-35.05Q634.88-35.05 635.08-34.75 635.28-34.45 635.28-33.65L635.28-33.65Q635.28-33.2 635.38-32.1L635.38-32.1Q635.48-30.8 635.48-29.85L635.48-29.85Z" opacity="1" transform="matrix(1,0,0,1,0,0)" fill="#ffffff" class="undefined-text-0" data-fill-palette-color="primary" id="text-0"></path></svg></g></svg></g><g transform="matrix(1,0,0,1,99.61625234141582,28.835706318937373)"><svg viewBox="0 0 196.2874953171683 14.416966679316886" height="14.416966679316886" width="196.2874953171683"><g transform="matrix(1,0,0,1,8,0)"><svg width="180.2874953171683" viewBox="3.930000066757202 -35 507.9700012207031 40.630001068115234" height="14.416966679316886" data-palette-color="#ffffff"><path d="M9.38 0L3.93 0 3.93-35 25.38-35 25.38-29.9 9.38-29.9 9.38-20.83 21.73-20.83 21.73-15.73 9.38-15.73 9.38 0ZM32.27 0.5L32.27 0.5Q30.12 0.5 28.45-0.41 26.77-1.33 25.81-2.95 24.85-4.58 24.85-6.78L24.85-6.78Q24.85-8.88 25.8-10.36 26.75-11.85 28.32-12.85 29.9-13.85 31.79-14.44 33.67-15.03 35.62-15.3 37.57-15.58 39.25-15.6L39.25-15.6Q39.22-18.53 38-19.56 36.77-20.6 34.27-20.6L34.27-20.6Q32.77-20.6 31.2-20.16 29.62-19.73 27.65-18.53L27.65-18.53 27.05-22.78Q28.85-23.88 31.07-24.53 33.3-25.18 35.67-25.18L35.67-25.18Q38.65-25.18 40.6-24.13 42.55-23.08 43.52-20.65 44.5-18.23 44.5-14.15L44.5-14.15 44.5-8.4Q44.5-6.6 44.66-5.59 44.82-4.58 45.37-4.15 45.92-3.73 47.05-3.73L47.05-3.73 47.65-3.73 47 0.5 45.85 0.5Q44 0.5 42.86 0.1 41.72-0.3 41.02-1.04 40.32-1.78 39.85-2.8L39.85-2.8Q38.52-1.3 36.56-0.4 34.6 0.5 32.27 0.5ZM33.87-3.6L33.87-3.6Q35.27-3.6 36.76-4.3 38.25-5 39.27-6.25L39.27-6.25 39.27-12.05Q36.47-11.93 34.46-11.39 32.45-10.85 31.36-9.78 30.27-8.7 30.27-7.03L30.27-7.03Q30.27-5.23 31.22-4.41 32.17-3.6 33.87-3.6ZM56.3 0L51.07 0 51.07-24.7 56.3-24.7 56.3 0ZM56.3-29.5L51.07-29.5 51.07-35 56.3-35 56.3-29.5ZM74.82 0.5L70.59 0.5Q68.27 0.5 66.83-0.4 65.39-1.3 64.73-2.7 64.07-4.1 64.07-5.65L64.07-5.65 64.07-20.53 60.14-20.53 60.62-24.7 64.07-24.7 64.07-30.53 69.29-31.08 69.29-24.7 75.34-24.7 75.34-20.53 69.29-20.53 69.29-8.3Q69.29-6.15 69.54-5.19 69.79-4.23 70.77-3.98 71.74-3.73 73.87-3.73L73.87-3.73 75.27-3.73 74.82 0.5ZM95.74 0L90.51 0 90.51-24.7 94.79-24.7 95.49-20.45 94.11-21.38Q96.04-23.28 98.14-24.23 100.24-25.18 102.74-25.18L102.74-25.18Q104.64-25.18 106.24-24.59 107.84-24 109.08-22.7 110.31-21.4 111.06-19.25L111.06-19.25 109.71-19.73Q110.86-22.28 113.15-23.73 115.44-25.18 118.89-25.18L118.89-25.18Q122.11-25.18 124.25-23.91 126.39-22.65 127.44-20.21 128.49-17.78 128.49-14.23L128.49-14.23 128.49 0 123.26 0 123.26-14Q123.26-17.48 122.03-19.09 120.79-20.7 117.96-20.7L117.96-20.7Q116.19-20.7 115.04-20.14 113.89-19.58 113.25-18.61 112.61-17.65 112.36-16.48 112.11-15.3 112.11-14.08L112.11-14.08 112.11 0 106.89 0 106.89-13.48Q106.89-16.2 106.26-17.78 105.64-19.35 104.44-20.03 103.24-20.7 101.54-20.7L101.54-20.7Q99.19-20.7 97.48-19.65 95.76-18.6 94.94-16.5L94.94-16.5 95.74-19.33 95.74 0ZM139.76 0.5L139.76 0.5Q137.61 0.5 135.94-0.41 134.26-1.33 133.3-2.95 132.34-4.58 132.34-6.78L132.34-6.78Q132.34-8.88 133.28-10.36 134.24-11.85 135.81-12.85 137.39-13.85 139.27-14.44 141.16-15.03 143.11-15.3 145.06-15.58 146.74-15.6L146.74-15.6Q146.71-18.53 145.49-19.56 144.26-20.6 141.76-20.6L141.76-20.6Q140.26-20.6 138.69-20.16 137.11-19.73 135.14-18.53L135.14-18.53 134.53-22.78Q136.34-23.88 138.56-24.53 140.78-25.18 143.16-25.18L143.16-25.18Q146.14-25.18 148.09-24.13 150.03-23.08 151.01-20.65 151.99-18.23 151.99-14.15L151.99-14.15 151.99-8.4Q151.99-6.6 152.15-5.59 152.31-4.58 152.86-4.15 153.41-3.73 154.54-3.73L154.54-3.73 155.14-3.73 154.49 0.5 153.34 0.5Q151.49 0.5 150.35 0.1 149.21-0.3 148.51-1.04 147.81-1.78 147.34-2.8L147.34-2.8Q146.01-1.3 144.05-0.4 142.09 0.5 139.76 0.5ZM141.36-3.6L141.36-3.6Q142.76-3.6 144.25-4.3 145.74-5 146.76-6.25L146.76-6.25 146.76-12.05Q143.96-11.93 141.95-11.39 139.94-10.85 138.85-9.78 137.76-8.7 137.76-7.03L137.76-7.03Q137.76-5.23 138.71-4.41 139.66-3.6 141.36-3.6ZM163.78 0L158.56 0 158.56-24.7 163.78-24.7 163.78 0ZM163.78-29.5L158.56-29.5 158.56-35 163.78-35 163.78-29.5ZM176.78 0.5L176.78 0.5Q173.85 0.5 171.78-0.15 169.71-0.8 168.35-1.53L168.35-1.53 168.91-6.28Q170.18-5.4 172.14-4.59 174.1-3.78 176.58-3.78L176.58-3.78Q178.73-3.78 179.87-4.49 181-5.2 181-6.6L181-6.6Q181-7.75 180.33-8.46 179.66-9.18 178.56-9.65 177.46-10.13 176.23-10.53L176.23-10.53Q174.31-11.15 172.59-11.98 170.88-12.8 169.82-14.19 168.75-15.58 168.75-17.88L168.75-17.88Q168.75-19.88 169.75-21.55 170.75-23.23 172.79-24.21 174.83-25.2 177.98-25.2L177.98-25.2Q180.38-25.2 182.07-24.69 183.75-24.18 185.08-23.48L185.08-23.48 184.53-18.85Q183.21-19.88 181.67-20.56 180.13-21.25 178.08-21.25L178.08-21.25Q176.18-21.25 175.06-20.51 173.93-19.78 173.93-18.28L173.93-18.28Q173.93-16.68 175.25-15.95 176.58-15.23 179.38-14.28L179.38-14.28Q180.66-13.85 181.88-13.26 183.1-12.68 184.12-11.85 185.13-11.03 185.73-9.8 186.33-8.58 186.33-6.88L186.33-6.88Q186.33-4.93 185.39-3.25 184.46-1.58 182.37-0.54 180.28 0.5 176.78 0.5ZM201.63 0.5L201.63 0.5Q197.7 0.5 194.92-1.24 192.13-2.98 190.67-5.89 189.2-8.8 189.2-12.33L189.2-12.33Q189.2-15.88 190.67-18.8 192.13-21.73 194.92-23.46 197.7-25.2 201.63-25.2L201.63-25.2Q205.58-25.2 208.37-23.46 211.15-21.73 212.62-18.8 214.08-15.88 214.08-12.33L214.08-12.33Q214.08-8.8 212.62-5.89 211.15-2.98 208.37-1.24 205.58 0.5 201.63 0.5ZM201.63-3.98L201.63-3.98Q205.08-3.98 206.92-6.23 208.75-8.47 208.75-12.33L208.75-12.33Q208.75-16.2 206.92-18.48 205.08-20.75 201.63-20.75L201.63-20.75Q198.23-20.75 196.38-18.48 194.53-16.2 194.53-12.33L194.53-12.33Q194.53-8.47 196.38-6.23 198.23-3.98 201.63-3.98ZM223.8 0L218.58 0 218.58-24.7 223.05-24.7 223.68-20.03 222.08-21.28Q224.1-23.38 226.3-24.28 228.5-25.18 230.9-25.18L230.9-25.18Q236.03-25.18 238.35-22.04 240.68-18.9 240.68-13.7L240.68-13.7 240.68 0 235.45 0 235.45-13.48Q235.45-17.2 234.13-18.95 232.8-20.7 229.65-20.7L229.65-20.7Q227.33-20.7 225.56-19.64 223.8-18.57 223-16.48L223-16.48 223.8-19.35 223.8 0ZM252.07-0.55L249.22 5.63 246.35 5.63 248.3 0 246.22 0 246.22-5.93 252.07-5.93 252.07-0.55ZM274.34 0.5L274.34 0.5Q272.19 0.5 270.52-0.41 268.84-1.33 267.88-2.95 266.92-4.58 266.92-6.78L266.92-6.78Q266.92-8.88 267.87-10.36 268.82-11.85 270.39-12.85 271.97-13.85 273.86-14.44 275.74-15.03 277.69-15.3 279.64-15.58 281.32-15.6L281.32-15.6Q281.29-18.53 280.07-19.56 278.84-20.6 276.34-20.6L276.34-20.6Q274.84-20.6 273.27-20.16 271.69-19.73 269.72-18.53L269.72-18.53 269.12-22.78Q270.92-23.88 273.14-24.53 275.37-25.18 277.74-25.18L277.74-25.18Q280.72-25.18 282.67-24.13 284.62-23.08 285.59-20.65 286.57-18.23 286.57-14.15L286.57-14.15 286.57-8.4Q286.57-6.6 286.73-5.59 286.89-4.58 287.44-4.15 287.99-3.73 289.12-3.73L289.12-3.73 289.72-3.73 289.07 0.5 287.92 0.5Q286.07 0.5 284.93 0.1 283.79-0.3 283.09-1.04 282.39-1.78 281.92-2.8L281.92-2.8Q280.59-1.3 278.63-0.4 276.67 0.5 274.34 0.5ZM275.94-3.6L275.94-3.6Q277.34-3.6 278.83-4.3 280.32-5 281.34-6.25L281.34-6.25 281.34-12.05Q278.54-11.93 276.53-11.39 274.52-10.85 273.43-9.78 272.34-8.7 272.34-7.03L272.34-7.03Q272.34-5.23 273.29-4.41 274.24-3.6 275.94-3.6ZM304.19 0L299.04 0 289.59-24.7 295.07-24.7 301.62-6.13 308.14-24.7 313.62-24.7 304.19 0ZM328.36 0.5L328.36 0.5Q323.94 0.5 320.96-1.29 317.99-3.08 316.48-6.04 314.96-9 314.96-12.53L314.96-12.53Q314.96-15.95 316.38-18.82 317.79-21.7 320.5-23.44 323.21-25.18 327.06-25.18L327.06-25.18Q330.34-25.18 332.74-23.85 335.14-22.53 336.43-20.15 337.71-17.78 337.71-14.6L337.71-14.6Q337.71-13.95 337.65-13.25 337.59-12.55 337.44-11.78L337.44-11.78 320.36-11.78Q320.69-8.85 321.91-7.14 323.14-5.43 324.96-4.7 326.79-3.98 328.91-3.98L328.91-3.98Q330.81-3.98 332.66-4.41 334.51-4.85 336.14-5.68L336.14-5.68 336.61-1.4Q335.19-0.73 333.11-0.11 331.04 0.5 328.36 0.5ZM320.66-15.35L320.66-15.35 332.36-15.35Q332.36-16.82 331.81-18.04 331.26-19.25 330.08-19.98 328.89-20.7 327.01-20.7L327.01-20.7Q324.26-20.7 322.75-19.25 321.24-17.8 320.66-15.35ZM353.54 0.5L353.54 0.5Q349.34 0.5 346.47-1.23 343.61-2.95 342.16-5.84 340.71-8.72 340.71-12.25L340.71-12.25Q340.71-15.88 342.14-18.81 343.56-21.75 346.46-23.48 349.36-25.2 353.84-25.2L353.84-25.2Q355.84-25.2 357.54-24.79 359.24-24.38 360.54-23.7L360.54-23.7 359.91-19.3Q358.64-19.93 357.14-20.31 355.64-20.7 354.04-20.7L354.04-20.7Q350.16-20.7 348.1-18.45 346.04-16.2 346.04-12.38L346.04-12.38Q346.04-8.65 348.06-6.3 350.09-3.95 353.96-3.95L353.96-3.95Q355.56-3.95 357.07-4.36 358.59-4.78 359.96-5.5L359.96-5.5 360.54-1.2Q359.41-0.5 357.52 0 355.64 0.5 353.54 0.5ZM381.68 0.5L381.68 0.5Q379.53 0.5 377.86-0.41 376.18-1.33 375.22-2.95 374.26-4.58 374.26-6.78L374.26-6.78Q374.26-8.88 375.21-10.36 376.16-11.85 377.73-12.85 379.31-13.85 381.19-14.44 383.08-15.03 385.03-15.3 386.98-15.58 388.66-15.6L388.66-15.6Q388.63-18.53 387.41-19.56 386.18-20.6 383.68-20.6L383.68-20.6Q382.18-20.6 380.61-20.16 379.03-19.73 377.06-18.53L377.06-18.53 376.46-22.78Q378.26-23.88 380.48-24.53 382.71-25.18 385.08-25.18L385.08-25.18Q388.06-25.18 390.01-24.13 391.96-23.08 392.93-20.65 393.91-18.23 393.91-14.15L393.91-14.15 393.91-8.4Q393.91-6.6 394.07-5.59 394.23-4.58 394.78-4.15 395.33-3.73 396.46-3.73L396.46-3.73 397.06-3.73 396.41 0.5 395.26 0.5Q393.41 0.5 392.27 0.1 391.13-0.3 390.43-1.04 389.73-1.78 389.26-2.8L389.26-2.8Q387.93-1.3 385.97-0.4 384.01 0.5 381.68 0.5ZM383.28-3.6L383.28-3.6Q384.68-3.6 386.17-4.3 387.66-5 388.68-6.25L388.68-6.25 388.68-12.05Q385.88-11.93 383.87-11.39 381.86-10.85 380.77-9.78 379.68-8.7 379.68-7.03L379.68-7.03Q379.68-5.23 380.63-4.41 381.58-3.6 383.28-3.6ZM405.7 0L400.48 0 400.48-24.7 404.75-24.7 405.45-20.45 404.08-21.38Q406-23.28 408.1-24.23 410.2-25.18 412.7-25.18L412.7-25.18Q414.6-25.18 416.2-24.59 417.8-24 419.04-22.7 420.28-21.4 421.03-19.25L421.03-19.25 419.68-19.73Q420.83-22.28 423.12-23.73 425.4-25.18 428.85-25.18L428.85-25.18Q432.08-25.18 434.22-23.91 436.35-22.65 437.4-20.21 438.45-17.78 438.45-14.23L438.45-14.23 438.45 0 433.23 0 433.23-14Q433.23-17.48 431.99-19.09 430.75-20.7 427.93-20.7L427.93-20.7Q426.15-20.7 425-20.14 423.85-19.58 423.22-18.61 422.58-17.65 422.33-16.48 422.08-15.3 422.08-14.08L422.08-14.08 422.08 0 416.85 0 416.85-13.48Q416.85-16.2 416.23-17.78 415.6-19.35 414.4-20.03 413.2-20.7 411.5-20.7L411.5-20.7Q409.15-20.7 407.44-19.65 405.73-18.6 404.9-16.5L404.9-16.5 405.7-19.33 405.7 0ZM455.13 0.5L455.13 0.5Q451.2 0.5 448.41-1.24 445.63-2.98 444.16-5.89 442.7-8.8 442.7-12.33L442.7-12.33Q442.7-15.88 444.16-18.8 445.63-21.73 448.41-23.46 451.2-25.2 455.13-25.2L455.13-25.2Q459.08-25.2 461.86-23.46 464.65-21.73 466.11-18.8 467.58-15.88 467.58-12.33L467.58-12.33Q467.58-8.8 466.11-5.89 464.65-2.98 461.86-1.24 459.08 0.5 455.13 0.5ZM455.13-3.98L455.13-3.98Q458.58-3.98 460.41-6.23 462.25-8.47 462.25-12.33L462.25-12.33Q462.25-16.2 460.41-18.48 458.58-20.75 455.13-20.75L455.13-20.75Q451.73-20.75 449.88-18.48 448.03-16.2 448.03-12.33L448.03-12.33Q448.03-8.47 449.88-6.23 451.73-3.98 455.13-3.98ZM481.55 0.5L481.55 0.5Q478.22 0.5 476.07-0.83 473.92-2.15 472.87-4.67 471.82-7.2 471.82-10.8L471.82-10.8 471.82-24.7 477.05-24.7 477.05-11.53Q477.05-7.8 478.31-5.9 479.57-4 482.45-4L482.45-4Q484.52-4 486.14-5 487.75-6 488.52-8.05L488.52-8.05 487.67-5.3 487.67-24.7 492.9-24.7 492.9 0 488.15 0 487.5-4.6 488.75-3.4Q487.67-1.6 485.84-0.55 484 0.5 481.55 0.5ZM504.27 0L498.87 0 498.87-24.7 503.47-24.7 503.85-21.25Q505.35-23.05 507.06-24.13 508.77-25.2 510.77-25.2L510.77-25.2Q511.37-25.2 511.9-25.08L511.9-25.08 511.45-19.65Q511.02-19.75 510.58-19.8 510.15-19.85 509.67-19.85L509.67-19.85Q507.87-19.85 506.38-19.04 504.9-18.23 504.27-17.2L504.27-17.2 504.27 0Z" opacity="1" transform="matrix(1,0,0,1,0,0)" fill="#ffffff" class="undefined-text-1" data-fill-palette-color="secondary" id="text-1"></path></svg></g></svg></g></svg></g></svg></g><g transform="matrix(1,0,0,1,147.0760050714332,0)"><svg viewBox="0 0 101.36798985713352 101.36798985713352" height="101.36798985713352" width="101.36798985713352"><g><svg></svg></g><g id="icon-0"><svg viewBox="0 0 101.36798985713352 101.36798985713352" height="101.36798985713352" width="101.36798985713352"><g><path d="M0 50.684c0-27.992 22.692-50.684 50.684-50.684 27.992 0 50.684 22.692 50.684 50.684 0 27.992-22.692 50.684-50.684 50.684-27.992 0-50.684-22.692-50.684-50.684zM50.684 99.264c26.83 0 48.58-21.75 48.58-48.58 0-26.83-21.75-48.58-48.58-48.58-26.83 0-48.58 21.75-48.58 48.58 0 26.83 21.75 48.58 48.58 48.58z" data-fill-palette-color="tertiary" fill="#ffffff" stroke="transparent"></path></g><g transform="matrix(1,0,0,1,26.34229253649035,24.974550152882973)"><svg viewBox="0 0 48.68340478415282 51.41888955136758" height="51.41888955136758" width="48.68340478415282"><g><svg version="1.0" xmlns="http://www.w3.org/2000/svg" xmlns:xlink="http://www.w3.org/1999/xlink" x="0" y="0" viewBox="0 0 94.68000030517578 100" enable-background="new 0 0 94.68 100" xml:space="preserve" width="48.68340478415282" height="51.41888955136758" class="icon-s-0" data-fill-palette-color="accent" id="s-0"><path d="M68.502 0c-3.284 0.262-6.492 0.594-9.654 0.971C38.964 3.335 21.698 7.916 8.656 14.01 5.521 15.475 2.619 17.024 0 18.66v58.244L94.68 100V40.886L68.502 0zM86.021 89.009L8.656 70.126V52.7l77.365 19.222V89.009zM86.021 63.003L8.699 43.78 8.656 26.353l77.365 19.248V63.003z" fill="#ffffff" data-fill-palette-color="accent"></path></svg></g></svg></g></svg></g></svg></g><g></g></svg></g><defs></defs></svg><rect width="395.5199999999999" height="155.6352253983859" fill="none" stroke="none" visibility="hidden"></rect></g></svg></g></svg>